<svg xmlns="http://www.w3.org/2000/svg" xmlns:xlink="http://www.w3.org/1999/xlink" viewBox="0 0 1562.52 1190.01"><defs><style>.cls-1,.cls-33,.cls-48,.cls-49{fill:none;}.cls-2{isolation:isolate;}.cls-3{fill:#97ccee;}.cls-4{fill:#7489af;}.cls-37,.cls-43,.cls-5{fill:#fff;}.cls-6{fill:#ddf1f5;}.cls-7{fill:#a1dadc;}.cls-8{fill:#81cfd1;}.cls-10,.cls-9{fill:#4f95d0;}.cls-10,.cls-12,.cls-16,.cls-34{mix-blend-mode:multiply;}.cls-11,.cls-12{fill:#3a5aa8;}.cls-13{fill:#4e93b8;}.cls-14{fill:url(#linear-gradient);}.cls-15{fill:#173f6d;}.cls-16,.cls-32{fill:#d1d3d4;}.cls-17{fill:#ef493e;}.cls-18{fill:#0b1f23;}.cls-19{fill:#4f5054;}.cls-20{fill:#191b23;}.cls-21{fill:#9a9a9a;}.cls-22{fill:#010101;}.cls-23{opacity:0.4;}.cls-24{fill:url(#linear-gradient-2);}.cls-25{fill:url(#linear-gradient-3);}.cls-26{fill:#2861a3;}.cls-27{fill:url(#linear-gradient-4);}.cls-28{fill:url(#linear-gradient-5);}.cls-29{fill:url(#linear-gradient-6);}.cls-30{fill:url(#linear-gradient-7);}.cls-31{fill:url(#linear-gradient-8);}.cls-33{stroke:#a6a8ac;stroke-width:4px;}.cls-33,.cls-50{stroke-miterlimit:10;}.cls-34{fill:#d1d2d3;}.cls-35{fill:url(#linear-gradient-9);}.cls-36{fill:url(#linear-gradient-10);}.cls-37{opacity:0.2;}.cls-38{fill:url(#linear-gradient-11);}.cls-39{fill:url(#linear-gradient-12);}.cls-40{fill:#75c0ea;}.cls-41{fill:url(#linear-gradient-13);}.cls-42{mix-blend-mode:luminosity;fill:url(#linear-gradient-14);}.cls-42,.cls-53{opacity:0.5;}.cls-43{opacity:0.8;}.cls-44{fill:#1a335f;}.cls-45{clip-path:url(#clip-path);}.cls-46{fill:#caddea;}.cls-47{fill:#80caa7;}.cls-48,.cls-49,.cls-50{stroke:#fff;}.cls-48,.cls-49{stroke-linecap:round;stroke-linejoin:round;}.cls-48{stroke-width:22px;}.cls-49{stroke-width:9px;}.cls-50,.cls-51{fill:#35b2e2;}.cls-50{stroke-width:14px;}.cls-52{fill:url(#linear-gradient-15);}.cls-53{fill:url(#linear-gradient-16);}.cls-54{fill:url(#linear-gradient-17);}.cls-55{fill:#791028;}.cls-56{fill:url(#linear-gradient-18);}.cls-57{fill:#ffda8b;}.cls-58{fill:url(#linear-gradient-19);}.cls-59{fill:url(#linear-gradient-20);}.cls-60{fill:url(#linear-gradient-21);}.cls-61{fill:url(#linear-gradient-22);}.cls-62{fill:#3b1e57;}.cls-63{fill:url(#linear-gradient-23);}.cls-64{fill:#13133d;}.cls-65{fill:url(#linear-gradient-24);}.cls-66{fill:url(#linear-gradient-25);}.cls-67{fill:url(#linear-gradient-26);}.cls-68{fill:url(#linear-gradient-27);}.cls-69{fill:#262262;}.cls-70{fill:#f0a350;}.cls-71{fill:#d66827;}.cls-72{fill:url(#linear-gradient-28);}.cls-73{fill:#524936;}.cls-74{fill:url(#linear-gradient-29);}.cls-75{fill:url(#linear-gradient-30);}.cls-76{fill:url(#linear-gradient-31);}.cls-77{fill:url(#linear-gradient-32);}.cls-78{fill:url(#linear-gradient-33);}.cls-79{fill:url(#linear-gradient-34);}.cls-80{fill:url(#linear-gradient-35);}.cls-81{fill:url(#linear-gradient-36);}.cls-82{fill:url(#linear-gradient-37);}.cls-83{fill:url(#linear-gradient-38);}.cls-84{fill:url(#linear-gradient-39);}</style><linearGradient id="linear-gradient" x1="9206.69" y1="789.45" x2="9263.62" y2="789.45" gradientTransform="translate(-7891.18)" gradientUnits="userSpaceOnUse"><stop offset="0.24" stop-color="#fff"/><stop offset="0.65" stop-color="#97ccee"/><stop offset="1" stop-color="#75c0ea"/></linearGradient><linearGradient id="linear-gradient-2" x1="1418.75" y1="796.72" x2="1430.54" y2="796.72" gradientTransform="matrix(1, 0, 0, 1, 0, 0)" xlink:href="#linear-gradient"/><linearGradient id="linear-gradient-3" x1="1002.13" y1="909.46" x2="1424.01" y2="909.46" gradientTransform="matrix(1, 0, 0, 1, 0, 0)" xlink:href="#linear-gradient"/><linearGradient id="linear-gradient-4" x1="1454.23" y1="1066.16" x2="1521.98" y2="1066.16" gradientTransform="matrix(1, 0, 0, 1, 0, 0)" xlink:href="#linear-gradient"/><linearGradient id="linear-gradient-5" x1="1439.33" y1="1025.48" x2="1496.29" y2="1025.48" gradientTransform="matrix(1, 0, 0, 1, 0, 0)" xlink:href="#linear-gradient"/><linearGradient id="linear-gradient-6" x1="9339.75" y1="975.54" x2="9444.23" y2="975.54" xlink:href="#linear-gradient"/><linearGradient id="linear-gradient-7" x1="1370.3" y1="1002.56" x2="1551.37" y2="1002.56" gradientTransform="matrix(1, 0, 0, 1, 0, 0)" xlink:href="#linear-gradient"/><linearGradient id="linear-gradient-8" x1="1371.27" y1="997.31" x2="1467.97" y2="997.31" gradientTransform="matrix(1, 0, 0, 1, 0, 0)" xlink:href="#linear-gradient"/><linearGradient id="linear-gradient-9" x1="8921.23" y1="1004.77" x2="9111.65" y2="1004.77" gradientTransform="translate(-7891.18)" gradientUnits="userSpaceOnUse"><stop offset="0" stop-color="#bcbec0"/><stop offset="0.7" stop-color="#e6e7e8"/></linearGradient><linearGradient id="linear-gradient-10" x1="8923.73" y1="952.84" x2="9354.3" y2="952.84" xlink:href="#linear-gradient"/><linearGradient id="linear-gradient-11" x1="1241.75" y1="680.57" x2="1288.95" y2="680.57" gradientUnits="userSpaceOnUse"><stop offset="0.24" stop-color="#fff"/><stop offset="1" stop-color="#75c0ea"/></linearGradient><linearGradient id="linear-gradient-12" x1="9189.39" y1="797.5" x2="9246.32" y2="797.5" xlink:href="#linear-gradient"/><linearGradient id="linear-gradient-13" x1="1270.3" y1="650.73" x2="1316.17" y2="650.73" gradientUnits="userSpaceOnUse"><stop offset="0.24" stop-color="#fff"/><stop offset="1" stop-color="#97ccee"/></linearGradient><linearGradient id="linear-gradient-14" x1="9176.7" y1="651.44" x2="9138.83" y2="588.43" gradientTransform="translate(-7891.18)" gradientUnits="userSpaceOnUse"><stop offset="0" stop-color="#fff" stop-opacity="0"/><stop offset="0.1" stop-color="#fff" stop-opacity="0.02"/><stop offset="0.23" stop-color="#fff" stop-opacity="0.08"/><stop offset="0.36" stop-color="#fff" stop-opacity="0.17"/><stop offset="0.5" stop-color="#fff" stop-opacity="0.31"/><stop offset="0.65" stop-color="#fff" stop-opacity="0.48"/><stop offset="0.81" stop-color="#fff" stop-opacity="0.69"/><stop offset="0.96" stop-color="#fff" stop-opacity="0.94"/><stop offset="1" stop-color="#fff"/></linearGradient><clipPath id="clip-path"><rect class="cls-1" x="488.1" y="33.35" width="530.05" height="1076.29" rx="21.58"/></clipPath><linearGradient id="linear-gradient-15" x1="2748.97" y1="662.4" x2="2882.04" y2="662.4" gradientTransform="matrix(-1, 0, 0, 1, 3716.85, 0)" gradientUnits="userSpaceOnUse"><stop offset="0.1" stop-color="#f6895c"/><stop offset="0.95" stop-color="#ef4136"/></linearGradient><linearGradient id="linear-gradient-16" x1="1247.53" y1="324.09" x2="1338.7" y2="166.19" gradientUnits="userSpaceOnUse"><stop offset="0.15" stop-color="#faed24"/><stop offset="1" stop-color="#fff"/></linearGradient><linearGradient id="linear-gradient-17" x1="1263.25" y1="296.87" x2="1322.98" y2="193.41" xlink:href="#linear-gradient-16"/><linearGradient id="linear-gradient-18" x1="-4398.95" y1="772.56" x2="-4323.77" y2="772.56" gradientTransform="matrix(0.99, 0.11, -0.11, 0.99, 4661.43, 279.87)" gradientUnits="userSpaceOnUse"><stop offset="0.1" stop-color="#ffda8b"/><stop offset="0.25" stop-color="#fed589"/><stop offset="0.41" stop-color="#fdc884"/><stop offset="0.59" stop-color="#fab27c"/><stop offset="0.77" stop-color="#f79371"/><stop offset="0.95" stop-color="#f26c62"/><stop offset="1" stop-color="#f15f5d"/></linearGradient><linearGradient id="linear-gradient-19" x1="-4353.39" y1="760.2" x2="-4353.39" y2="683.34" xlink:href="#linear-gradient-18"/><linearGradient id="linear-gradient-20" x1="3926.12" y1="572" x2="3936.97" y2="572" gradientTransform="matrix(-1, 0, 0, 1, 4342.23, 0)" xlink:href="#linear-gradient-18"/><linearGradient id="linear-gradient-21" x1="4019.16" y1="-1797.89" x2="4095.05" y2="-1797.89" gradientTransform="matrix(-0.45, 0.89, 0.89, 0.45, 3845.27, -2245.99)" xlink:href="#linear-gradient-18"/><linearGradient id="linear-gradient-22" x1="225.92" y1="1091.6" x2="303.81" y2="1091.6" gradientTransform="matrix(1, 0, 0, 1, 0, 0)" xlink:href="#linear-gradient-18"/><linearGradient id="linear-gradient-23" x1="-1060.5" y1="-734.72" x2="-982.61" y2="-734.72" gradientTransform="matrix(0.83, 0.56, -0.56, 0.83, 594.11, 2256.69)" xlink:href="#linear-gradient-18"/><linearGradient id="linear-gradient-24" x1="3929.33" y1="632.74" x2="4084.23" y2="632.74" gradientTransform="matrix(-1, 0, 0, 1, 4342.23, 0)" gradientUnits="userSpaceOnUse"><stop offset="0.1" stop-color="#f6895c"/><stop offset="0.95" stop-color="#f16680"/></linearGradient><linearGradient id="linear-gradient-25" x1="4057.41" y1="669.87" x2="4200.48" y2="669.87" xlink:href="#linear-gradient-24"/><linearGradient id="linear-gradient-26" x1="4091.77" y1="720.73" x2="4156.3" y2="720.73" gradientTransform="matrix(-1, 0, 0, 1, 4342.23, 0)" xlink:href="#linear-gradient-18"/><linearGradient id="linear-gradient-27" x1="4139.19" y1="649.56" x2="4245.17" y2="649.56" xlink:href="#linear-gradient-24"/><linearGradient id="linear-gradient-28" x1="433.41" y1="678.69" x2="525.25" y2="678.69" gradientTransform="matrix(1, 0, 0, 1, 0, 0)" xlink:href="#linear-gradient-18"/><linearGradient id="linear-gradient-29" x1="3162.59" y1="309.42" x2="3209.79" y2="309.42" gradientTransform="matrix(-1, -0.07, -0.07, 1, 3809, 438.02)" xlink:href="#linear-gradient-18"/><linearGradient id="linear-gradient-30" x1="3193.48" y1="539.89" x2="3248.29" y2="539.89" gradientTransform="matrix(-0.94, -0.27, -0.33, 0.87, 3786.71, 923.58)" xlink:href="#linear-gradient-18"/><linearGradient id="linear-gradient-31" x1="620.75" y1="752.36" x2="620.75" y2="565.63" gradientUnits="userSpaceOnUse"><stop offset="0" stop-color="#27aae1"/><stop offset="0.07" stop-color="#27a0da"/><stop offset="0.5" stop-color="#2969b2"/><stop offset="0.83" stop-color="#2b4699"/><stop offset="1" stop-color="#2b3990"/></linearGradient><linearGradient id="linear-gradient-32" x1="3082.15" y1="633.23" x2="3216.6" y2="633.23" gradientTransform="matrix(-1, 0, 0, 1, 3716.85, 0)" xlink:href="#linear-gradient-31"/><linearGradient id="linear-gradient-33" x1="559.25" y1="461.88" x2="644.75" y2="461.88" xlink:href="#linear-gradient-31"/><linearGradient id="linear-gradient-34" x1="534.06" y1="476.48" x2="597.75" y2="476.48" xlink:href="#linear-gradient-31"/><linearGradient id="linear-gradient-35" x1="598.91" y1="504.69" x2="623.58" y2="504.69" gradientTransform="matrix(1, 0, 0, 1, 0, 0)" xlink:href="#linear-gradient-18"/><linearGradient id="linear-gradient-36" x1="144.91" y1="419.7" x2="179.24" y2="419.7" xlink:href="#linear-gradient-31"/><linearGradient id="linear-gradient-37" x1="0" y1="363.36" x2="244" y2="363.36" xlink:href="#linear-gradient-31"/><linearGradient id="linear-gradient-38" x1="674.76" y1="419.7" x2="709.09" y2="419.7" gradientTransform="matrix(1, 0, 0, 1, 0, 0)" xlink:href="#linear-gradient-15"/><linearGradient id="linear-gradient-39" x1="-610" y1="363.36" x2="-366" y2="363.36" gradientTransform="matrix(-1, 0, 0, 1, 244, 0)" xlink:href="#linear-gradient-15"/></defs><g class="cls-2"><g id="Layer_1" data-name="Layer 1"><path class="cls-3" d="M828.14,1057.49c-66.39,27.21-131.47,60.79-199.28,87.33-12.46,4.69-25,9.19-37.72,13.4-16.92,5.53-33.89,10.65-51.08,15.18s-34.42,8.32-52.06,11.35a436.1,436.1,0,0,1-49.87,5,359.32,359.32,0,0,1-50.89-1.52,363.64,363.64,0,0,1-57.15-12,321.59,321.59,0,0,1-107.82-55.79c-75.57-58.77-107.06-161.63-67.47-248.49,8.53-21.71,20.48-44.26,36.47-67.5a362.56,362.56,0,0,0,29.29-34.94C335.62,646,279,480.14,220.17,343.7,195,282.83,195,211.46,235.26,154.38a206.36,206.36,0,0,1,51-47.68A225.92,225.92,0,0,1,347.05,79a322.35,322.35,0,0,1,44.47-9.45c89.61-17.23,174.29-7.48,250.48,25A440.94,440.94,0,0,1,697.49,123C761.75,156.88,804.56,269.46,915,266c137.54-4.26,268.69-125.94,405.38-61.21a195.48,195.48,0,0,1,41.19,25.9,170.68,170.68,0,0,1,55.13,81.5c35.68,113.35-27.29,220.4-58.78,325.36-6.3,21-11.55,43-12.6,65.08s2.1,44.08,12.6,65.07c52.48,94.46,67.17,233-40.91,292.68a394.88,394.88,0,0,1-36.77,21.22c-38,19.2-79.75,31.41-123.84,28.26-92.36-8.4-174.22-50.38-267-55.11Q860.73,1055.08,828.14,1057.49Z"/><path class="cls-4" d="M471.24,114.36s-180,68-156,164,88,52,80,132,24,172,240,220"/><polygon class="cls-5" points="352.36 588.01 268.35 740.75 350.57 741.7 352.36 588.01"/><polygon class="cls-6" points="436.95 742.7 354.78 583.6 352.36 588.01 350.57 741.7 436.95 742.7"/><polygon class="cls-7" points="268.35 740.75 71.36 1098.88 346.41 1099.81 350.57 741.7 268.35 740.75"/><polygon class="cls-8" points="436.95 742.7 350.57 741.7 346.41 1099.81 621.85 1100.73 436.95 742.7"/><path class="cls-5" d="M1124.59,376.06s-11.31-5.44-7.18-29.42,23.62-77,23.62-77l-2.57,71.81,43.42-34.64S1143.91,380.66,1124.59,376.06ZM1105.92,415c16.81-40-22.56-77.63-22.56-77.63C1077.77,366.09,1105.92,415,1105.92,415Zm27.41-18.72,67.07-45.54C1164.06,338.23,1133.33,396.23,1133.33,396.23Zm-7.52,54.07s22.35-15.82,31.09-27.41,46.42-41.5,46.42-41.5C1143.89,363.8,1125.81,450.3,1125.81,450.3Zm-37.43,31.29c16.1-25.66-13.56-97-13.56-97C1062,429.75,1088.38,481.59,1088.38,481.59ZM1075.21,534s11.07-77.3-42.41-124.8C1032.8,409.17,1051.9,529.25,1075.21,534Zm-18.65,60.86s21-85.88-56.33-139.74C1000.23,455.09,1030.45,584.89,1056.56,594.83Zm-14.29,46.65s11.08-28.21-5.69-52.78-50.39-65.52-50.39-65.52,22,82.08,25.6,86.1S1030.31,639.29,1042.27,641.48ZM1030.33,701s6.2-12.2-.72-30.87S993,589.9,973.2,576.58C973.2,576.58,998.65,691.76,1030.33,701ZM1014,754.84s5.66-27-10.34-49.36-40.54-72.2-81.06-93.89c0,0,15,38.18,18.4,49.41S1003.05,761.18,1014,754.84Zm-25.37,41.31s5.26-24.27-7.19-44.54S931.35,664.41,895.19,647c0,0,35.26,81.82,44.38,98.91S980.44,795.66,988.66,796.15ZM975.3,848.91s7.84-16.1-9.4-48.55S865.14,683.44,865.14,683.44l53.37,103.34S964.5,846.08,975.3,848.91Zm-5.23,32.91c-.13-5.87-20.23-46.55-40.57-59.56s-72.65-32.51-74.27-33.48-33.79-10.36-33.79-10.36,53.34,35.29,61.79,50.54S947,895.18,969.52,883.6m15.63,7.7c-3.77,20.23,94,15.23,116.1,6.6s57.91-8.19,57.91-8.19-80.46-26.14-97-24.39S986,888.62,986,888.62m15.11-31.83c-3.4,6.6,13.91,3.8,26.3,4.68s102.69-43.38,115.27-52.66,35.93-22,35.93-22c-28.87-1.07-103.44,15.42-131.64,28.2S1002,853.71,1002,853.71m36.64-65.57s43.7,4.61,64.32-9.47,85.75-52,85.75-52-142.75,5.85-150.61,63.21m17.13-57.46s32,4.95,58.12-15.24,78.05-67.45,78.05-67.45S1058,700,1055.24,732.45Zm25.57-72.36c-5.89,12.81,12.65,6.32,32.45-1.23s101.07-69.63,101.07-69.63C1179.71,586.39,1086.65,647.31,1080.81,660.09Zm7-48.41c-.63,3.71,9.09-1.07,25-6.9s102.05-71.27,102.05-71.27C1148.75,535.1,1088.5,608,1087.84,611.68Zm4.61-46.68c21.31,5,127.11-89.63,127.11-89.63C1179.71,470.69,1071.17,559.91,1092.45,565Zm106.79-148.6c-47.36-.91-91.09,81.47-90,95.41,1,13,78.78-81.65,88.9-94.06.73-.87,1.11-1.35,1.11-1.35m-79.28-23c-2.25,8.86-4.93,19.63-8,32s-6.71,26.27-10.58,41.47-8.16,31.6-12.67,49-9.49,35.62-14.55,54.55-10.26,38.46-15.94,58.21-11.2,39.92-17.3,59.86c-2.9,10-5.82,20.06-8.69,30.05-3.08,9.93-6.11,19.85-9.13,29.64s-5.91,19.63-9,29.19-6.25,19-9.33,28.31c-6,18.62-12.36,36.42-18.24,53.36-5.66,17-12.11,32.7-17.63,47.36s-11.25,27.78-16.22,39.5c-2.48,5.83-4.82,11.33-7,16.42s-4.63,9.45-6.62,13.57c-8.07,16.43-12.66,25.8-12.66,25.8s5.08-9.13,14-25.15c2.11-4,4.74-8.38,7.15-13.36s4.91-10.38,7.65-16.16,5.64-11.89,8.71-18.34,5.76-13.5,8.85-20.72c5.92-14.53,12.74-30.11,18.85-47,6.31-16.86,13.24-34.53,19.23-53.21,3.17-9.25,6.38-18.73,9.6-28.27s6.18-19.35,9.35-29.16,6.2-19.72,9.35-29.68q4.44-14.94,8.92-30c6-20,11.4-40.28,16.87-60.12s10.43-39.5,15.51-58.43,9.32-37.39,13.54-54.86,7.93-34,11.48-49.3,6.59-29.36,9.19-41.8,4.86-23.37,6.73-32.32,3.14-16,4.11-20.82,1.4-7.4,1.4-7.4S1124.34,375.63,1120,393.38Zm21.27-3.08a3.31,3.31,0,0,0-1.49-.12,16.63,16.63,0,0,0-4.82,1.12,34.1,34.1,0,0,0-12,7.93c-3.69,3.76-6.51,8.48-7.45,12.49a14.62,14.62,0,0,0-.6,4.92,8.39,8.39,0,0,0,.25,1.86s1.69-2.18,4.12-4.77,5.69-5.92,9-9.27,6.59-6.79,9-9.59l3-3.34a6.26,6.26,0,0,1,.91-.82.61.61,0,0,1,.44-.16C1141.59,390.6,1141.62,390.41,1141.23,390.3Zm-55.55,84.31a71.65,71.65,0,0,0,.46,15.46,72.64,72.64,0,0,0,3.57,15,41.94,41.94,0,0,0,3.06,6.65,37.47,37.47,0,0,0,1.2-7.21,69.18,69.18,0,0,0-.48-15.45,72.61,72.61,0,0,0-3.58-15,37.56,37.56,0,0,0-3-6.66A38,38,0,0,0,1085.68,474.61Zm13.54-76.12a103.82,103.82,0,0,0,4.62,13.6c1,2.42,2.05,4.78,3,6.94s1.91,4.21,2.75,6,1.47,3.29,1.86,4.4.71,1.81.71,1.81a12.69,12.69,0,0,0,.78-1.85,8.82,8.82,0,0,0,.56-2.19,18.23,18.23,0,0,0,.3-2.94,29,29,0,0,0-.68-7.19,42.49,42.49,0,0,0-2.41-7.72,47.05,47.05,0,0,0-7.72-12.8,28.38,28.38,0,0,0-5.08-4.81A43,43,0,0,0,1099.22,398.49Zm7.72,110.85a40.8,40.8,0,0,0-9.09,7.76,42,42,0,0,0-6.68,9.86,23.26,23.26,0,0,0-2,5.43,26.16,26.16,0,0,0,5.17-2.58,41.64,41.64,0,0,0,9.06-7.76,42.23,42.23,0,0,0,6.68-9.89,25.07,25.07,0,0,0,2-5.42A25.92,25.92,0,0,0,1106.94,509.34Zm19.94-67.7a76.91,76.91,0,0,0-11.77,10.79,75.59,75.59,0,0,0-9.38,13,38,38,0,0,0-3.19,6.8,42.39,42.39,0,0,0,6.37-4,79.8,79.8,0,0,0,21.14-23.76,40.21,40.21,0,0,0,3.21-6.79A39.08,39.08,0,0,0,1126.88,441.64Zm-53.73,94a37.84,37.84,0,0,0,4.11,21.21,21.39,21.39,0,0,0,3.06,4.43,22,22,0,0,0,1.16-5.25,35.84,35.84,0,0,0-.53-10.9,37.31,37.31,0,0,0-3.63-10.31,22,22,0,0,0-3-4.39A20.63,20.63,0,0,0,1073.15,535.65Zm17.27,28.09a32.32,32.32,0,0,0-14.08,14,18.29,18.29,0,0,0-1.7,4.72,19.33,19.33,0,0,0,4.7-1.69,29.55,29.55,0,0,0,8.17-5.85,30,30,0,0,0,5.9-8.12,20.31,20.31,0,0,0,1.75-4.68A19.72,19.72,0,0,0,1090.42,563.74Zm-37.31,31.32a61.83,61.83,0,0,0,1.28,14.18,61.17,61.17,0,0,0,4.4,13.56,35.18,35.18,0,0,0,3.36,5.89A34,34,0,0,0,1063,622a63.8,63.8,0,0,0-5.66-27.75,34.63,34.63,0,0,0-3.38-5.89A35.74,35.74,0,0,0,1053.11,595.06Zm32.53,19.9a87.59,87.59,0,0,0-23.24,23.66,46.29,46.29,0,0,0-3.75,6.91,42.26,42.26,0,0,0,6.81-3.91,82.06,82.06,0,0,0,12.76-10.71A83.67,83.67,0,0,0,1088.68,618a54.09,54.09,0,0,0,3.78-6.89A44.79,44.79,0,0,0,1085.64,615Zm-47,25.56a92.52,92.52,0,0,0,1,17.81,89.6,89.6,0,0,0,4.13,17.3,47.19,47.19,0,0,0,3.26,7.67A45,45,0,0,0,1048,675a93.21,93.21,0,0,0-1-17.77,98.35,98.35,0,0,0-4.16-17.35,47.9,47.9,0,0,0-3.3-7.64A51.92,51.92,0,0,0,1038.67,640.52Zm37.1,31.33a100.65,100.65,0,0,0-8.43,5.52c-3,2.14-6.1,4.56-9.07,7.13s-5.75,5.32-8.31,8a69.9,69.9,0,0,0-6.47,7.85,33.51,33.51,0,0,0-2.23,3.47,19.39,19.39,0,0,0-1.47,2.91,6.74,6.74,0,0,0-.59,2c-.09.45-.15.69-.15.69l.51-.52a9.51,9.51,0,0,1,1.42-1.35c.72-.52,1.44-1.18,2.41-1.92s2-1.47,3.19-2.33c4.64-3.48,10.76-8.17,16.58-13.27,2.94-2.55,5.77-5.15,8.37-7.74s5-5,6.92-7.26a72.6,72.6,0,0,0,6.2-7.76A63.26,63.26,0,0,0,1075.77,671.85Zm-51.17,21a54.34,54.34,0,0,0,1.7,13.23,53,53,0,0,0,4.79,12.45,28.72,28.72,0,0,0,3.56,5.32,29.1,29.1,0,0,0,.58-6.34,52.67,52.67,0,0,0-1.72-13.27,53.82,53.82,0,0,0-4.81-12.47,30.06,30.06,0,0,0-3.51-5.31A28.59,28.59,0,0,0,1024.6,692.86Zm32.54,36a75,75,0,0,0-14.05,7.45,73.23,73.23,0,0,0-12.29,10.06,39.81,39.81,0,0,0-4.8,5.75,43.64,43.64,0,0,0,7.17-2.19,74.53,74.53,0,0,0,14-7.44,75.5,75.5,0,0,0,12.28-10.08,39.25,39.25,0,0,0,4.78-5.76A41.93,41.93,0,0,0,1057.14,728.84ZM1010,750.25a29.07,29.07,0,0,0,1.6,9.65,28,28,0,0,0,4.57,8.64,17.24,17.24,0,0,0,3.42,3.45,18.85,18.85,0,0,0,.61-4.81,28,28,0,0,0-1.56-9.64,30.22,30.22,0,0,0-4.59-8.66,18.53,18.53,0,0,0-3.41-3.44A19,19,0,0,0,1010,750.25Zm27.31,36.22a99.14,99.14,0,0,0-15,10.8,102,102,0,0,0-12.88,13.19,53.37,53.37,0,0,0-4.94,7.07,50,50,0,0,0,7.71-3.86,96.9,96.9,0,0,0,15-10.76,103.07,103.07,0,0,0,12.91-13.2,55,55,0,0,0,4.91-7.06A51.5,51.5,0,0,0,1037.32,786.47ZM984.92,796a64.24,64.24,0,0,0,4.51,13.84,61.59,61.59,0,0,0,7.39,12.58,34.57,34.57,0,0,0,4.66,5.08,35.86,35.86,0,0,0-.76-6.87,66.38,66.38,0,0,0-12-26.39,33.52,33.52,0,0,0-4.64-5.1A34.76,34.76,0,0,0,984.92,796Zm19.36,61.81a30.87,30.87,0,0,0-9.29,3.91,30,30,0,0,0-7.58,6.58,19.2,19.2,0,0,0-2.7,4.2,18.85,18.85,0,0,0,5-.58,30,30,0,0,0,9.25-3.9,31.13,31.13,0,0,0,7.58-6.56,20.26,20.26,0,0,0,2.71-4.18A18.68,18.68,0,0,0,1004.28,857.76Zm-32-10.27a46.09,46.09,0,0,0,2.33,12,45.59,45.59,0,0,0,5.33,11,28.09,28.09,0,0,0,3.78,4.55,24.92,24.92,0,0,0,.28-5.91,45.59,45.59,0,0,0-2.32-12,46.13,46.13,0,0,0-5.36-11.06,26.28,26.28,0,0,0-3.77-4.55A25.36,25.36,0,0,0,972.25,847.49ZM982.74,896c-1.83,1.07-3.54,2.28-5.28,3.42s-3.39,2.41-5,3.71-3.26,2.55-4.83,3.92l6,1.87c-.53-2.93-1.2-5.83-1.87-8.69s-1.59-5.73-2.45-8.61c-.42-1.43-1-2.84-1.44-4.26s-1.05-2.77-1.6-4.17a62.73,62.73,0,0,0-4-8.23,59,59,0,0,0,0,9.11c.11,1.5.14,3,.32,4.49s.28,3,.49,4.46c.45,2.93.89,5.87,1.49,8.81s1.23,5.75,2,8.63l1.61,6,4.35-4.13c1.49-1.48,2.87-3,4.31-4.47s2.75-3.11,4.12-4.69,2.64-3.19,3.86-4.93a50.58,50.58,0,0,0,3.53-5.32C986.38,893.88,984.52,894.88,982.74,896Z"/><path class="cls-9" d="M528.6,1105.48S549.45,868.79,219,717.31C219,717.31,232.77,957.72,528.6,1105.48Z"/><path class="cls-10" d="M313.62,825.88s15.33,16,36.92,41.11c5.41,6.26,11.26,13,17.32,20.34s12.56,14.9,19,22.95,13.35,16.24,20,24.79,13.55,17.18,20.38,25.82,13.41,17.52,20,26.15,12.89,17.25,19.07,25.55,12,16.45,17.47,24.18,10.66,15.06,15.31,21.92c9.4,13.65,16.92,25.24,22,33.53,2.56,4.11,4.47,7.4,5.64,9.77s1.85,3.49,1.85,3.49-.85-1.09-2.43-3.15-4.06-4.9-7.14-8.62c-6.2-7.39-15.09-17.93-25.75-30.58-5.29-6.34-11.08-13.2-17-20.55s-12.4-15-18.82-23.09-13.27-16.3-19.9-24.88L417.2,968.75c-6.71-8.73-13.42-17.48-20-26.08S384.24,925.44,378,917.2s-12.07-16.35-17.66-24-10.81-15-15.59-21.71C325.57,844.53,313.62,825.87,313.62,825.88Z"/><path class="cls-11" d="M537.66,1025.18S573.93,881.6,385.59,755.66C385.59,755.66,370.26,905,537.66,1025.18Z"/><path class="cls-12" d="M433.06,831.85s7.83,11.35,18.64,28.94c2.71,4.39,5.65,9.14,8.64,14.23s6.26,10.41,9.45,16,6.6,11.32,9.87,17.23,6.64,11.91,10,17.92,6.52,12.1,9.72,18.06,6.22,11.9,9.19,17.62,5.75,11.3,8.37,16.6,5.07,10.32,7.25,15c4.42,9.32,7.91,17.21,10.19,22.8,1.17,2.78,2,5,2.51,6.56l.79,2.35-1.18-2.18c-.73-1.43-2-3.43-3.54-6-3.1-5.15-7.52-12.52-12.82-21.36-2.63-4.43-5.51-9.21-8.45-14.33s-6.15-10.46-9.29-16.08-6.55-11.34-9.79-17.28L482.64,930l-9.73-18c-3.25-5.94-6.25-11.88-9.27-17.57s-5.8-11.26-8.49-16.52S450,867.62,447.71,863C438.57,844.5,433.06,831.84,433.06,831.85Z"/><polygon class="cls-13" points="1017.63 709.09 1017.5 709.82 990.86 857.2 990.79 857.61 1112.47 855.83 1135.73 712.22 1017.63 709.09"/><path class="cls-14" d="M1360.75,776.49c-7.71-2.68-24.16-.11-24.16-.11l-2.67,7.27-11.79-4.19s-17.29,7.61,4,13.88c14.43,4.24,21.55,1.37,24.65-.93a20.36,20.36,0,0,1,11.87,11.22s6.41-.12,9.11-9.84S1368.46,779.17,1360.75,776.49Z"/><path class="cls-13" d="M1241.1,707.29s-14,98.09-9.38,100.56,101.91-6,101.91-6l12.06-25.47L1274.63,771l4-58.33S1269.27,677.79,1241.1,707.29Z"/><path class="cls-15" d="M1150.07,849.42s-6.7,67.7,40.23,64.37,101.23-10.07,101.23-10.07l-53.19,120.36,32.64,8.14,68.83-149.29s18.77-26.81-19.45-32.17-144.81,1.34-144.81,1.34Z"/><polygon class="cls-16" points="1017.63 709.09 1017.5 709.82 1108 712.22 1084.73 855.83 990.86 857.2 990.79 857.61 1112.47 855.83 1135.73 712.22 1017.63 709.09"/><path class="cls-17" d="M1058.2,939.24c0,18.67-13.82,33.79-30.87,33.79s-30.86-15.12-30.86-33.79,13.82-33.76,30.86-33.76S1058.2,920.6,1058.2,939.24Z"/><path class="cls-18" d="M1159.26,1066.16a74.42,74.42,0,1,1-74.41-74.41A74.41,74.41,0,0,1,1159.26,1066.16Z"/><path class="cls-19" d="M1139,1066.16a54.15,54.15,0,1,1-54.14-54.14A54.14,54.14,0,0,1,1139,1066.16Z"/><path class="cls-20" d="M1127.79,1066.16a42.95,42.95,0,1,1-42.94-42.94A43,43,0,0,1,1127.79,1066.16Z"/><path class="cls-21" d="M1118.72,1066.16a33.88,33.88,0,1,1-33.87-33.88A33.88,33.88,0,0,1,1118.72,1066.16Z"/><path class="cls-22" d="M1102.18,1066.16a17.34,17.34,0,1,1-17.33-17.33A17.33,17.33,0,0,1,1102.18,1066.16Z"/><path d="M1112.32,1066.53a1.87,1.87,0,1,1-1.87-1.88A1.88,1.88,0,0,1,1112.32,1066.53Z"/><path d="M1061.82,1066.53a1.87,1.87,0,1,1-1.87-1.88A1.88,1.88,0,0,1,1061.82,1066.53Z"/><path d="M1085.2,1093.63a1.86,1.86,0,1,1,1.87-1.86A1.87,1.87,0,0,1,1085.2,1093.63Z"/><path d="M1085.2,1043.14a1.87,1.87,0,1,1,1.87-1.86A1.87,1.87,0,0,1,1085.2,1043.14Z"/><path d="M1104.37,1085.69a1.86,1.86,0,1,1,0-2.63A1.85,1.85,0,0,1,1104.37,1085.69Z"/><path d="M1068.67,1050a1.86,1.86,0,1,1,0-2.62A1.85,1.85,0,0,1,1068.67,1050Z"/><path d="M1066,1085.69a1.86,1.86,0,1,1,2.64,0A1.85,1.85,0,0,1,1066,1085.69Z"/><path d="M1101.73,1050a1.86,1.86,0,1,1,2.64,0A1.84,1.84,0,0,1,1101.73,1050Z"/><g class="cls-23"><path class="cls-5" d="M1148.59,1051a2.64,2.64,0,0,1-2.63-2.26c-.8-5.1-1.27-6.3-3.31-10.07a2.66,2.66,0,0,1,4.68-2.55c2.46,4.54,3,6.3,3.9,11.8a2.66,2.66,0,0,1-2.23,3A2.83,2.83,0,0,1,1148.59,1051Z"/></g><g class="cls-23"><path class="cls-5" d="M1140.76,1031.93a2.65,2.65,0,0,1-2.18-1.14,59.71,59.71,0,0,0-20.48-17.69,2.68,2.68,0,0,1-1.25-3.55,2.65,2.65,0,0,1,3.54-1.27,63.8,63.8,0,0,1,22.55,19.45,2.64,2.64,0,0,1-.65,3.7A2.59,2.59,0,0,1,1140.76,1031.93Z"/></g><path class="cls-18" d="M1010.75,985.88l-17.43,41.25s-2.13,5.69,5.69,5.69h7.83l39.47-40.89Z"/><polygon class="cls-24" points="1428.62 817.85 1418.75 817.85 1418.75 775.7 1430.54 775.59 1428.62 817.85"/><path class="cls-25" d="M1424,769h-12.1c-7.83,0-35.57,14.22-35.57,14.22h-42.67l-2.14,8.54,29.16,57.6s-1.42,8.53,8.55,40.55,8.53,70.41-2.14,100.28-37,42.68-37,42.68H1281s8.54-59.74,14.23-80.37-4.27-42.67-34.14-43.37c-27-.66-118.68-8.87-135.89-10.43a114.09,114.09,0,0,0-24.83-2.72c-54.27,0-98.27,37.79-98.27,84.4a74.1,74.1,0,0,0,8.42,34.21c2.47,8.14,6,12.3,9.21,14.4h161c11.3-13.74,17.94-30.51,17.94-48.61,0-19.51-7.71-37.47-20.65-51.75,52.7-2.45,23,121.39,23,121.39l145.42-2.92s53.35-55.47,57.61-81.8-25.6-113.79-25.6-113.79l-4.28-12.81,22.3-10.87-.71-7.57,26.08,1.37Z"/><polygon class="cls-13" points="1428.68 818 1421.93 817.74 1422.96 796.37 1430 796.21 1428.68 818"/><path class="cls-15" d="M1562.52,1066.16a74.42,74.42,0,1,1-74.41-74.41A74.41,74.41,0,0,1,1562.52,1066.16Z"/><path class="cls-26" d="M1542.25,1066.16a54.15,54.15,0,1,1-54.14-54.14A54.14,54.14,0,0,1,1542.25,1066.16Z"/><path class="cls-15" d="M1531.05,1066.16a42.95,42.95,0,1,1-42.94-42.94A43,43,0,0,1,1531.05,1066.16Z"/><path class="cls-27" d="M1522,1066.16a33.88,33.88,0,1,1-33.87-33.88A33.88,33.88,0,0,1,1522,1066.16Z"/><path class="cls-15" d="M1505.44,1066.16a17.34,17.34,0,1,1-17.33-17.33A17.33,17.33,0,0,1,1505.44,1066.16Z"/><path class="cls-26" d="M1515.59,1066.53a1.88,1.88,0,0,1-3.75,0,1.88,1.88,0,1,1,3.75,0Zm-52.38-1.88a1.88,1.88,0,1,0,1.87,1.88A1.87,1.87,0,0,0,1463.21,1064.65Zm27.12,27.12a1.87,1.87,0,1,0-1.87,1.86A1.86,1.86,0,0,0,1490.33,1091.77Zm0-50.49a1.87,1.87,0,1,0-1.87,1.86A1.87,1.87,0,0,0,1490.33,1041.28Zm17.3,41.78a1.86,1.86,0,1,0,0,2.63A1.84,1.84,0,0,0,1507.63,1083.06Zm-35.71-35.7a1.86,1.86,0,1,0,0,2.62A1.85,1.85,0,0,0,1471.92,1047.36Zm0,38.33a1.86,1.86,0,1,0-2.64,0A1.85,1.85,0,0,0,1471.92,1085.69Zm35.71-35.71a1.82,1.82,0,0,0,0-2.62,1.86,1.86,0,1,0,0,2.62Z"/><path class="cls-5" d="M1551.85,1051a2.65,2.65,0,0,1-2.63-2.26c-.8-5.1-1.27-6.3-3.31-10.07a2.67,2.67,0,0,1,4.69-2.55c2.45,4.54,3,6.3,3.88,11.8a2.66,2.66,0,0,1-2.22,3A2.73,2.73,0,0,1,1551.85,1051Z"/><path class="cls-5" d="M1544,1031.93a2.65,2.65,0,0,1-2.18-1.14,59.94,59.94,0,0,0-20.46-17.69,2.66,2.66,0,1,1,2.27-4.82,64,64,0,0,1,22.55,19.45,2.65,2.65,0,0,1-.65,3.7A2.57,2.57,0,0,1,1544,1031.93Z"/><path class="cls-5" d="M1487.31,1074.69a8.5,8.5,0,0,1-7.71-4.86l-31.74-66.77a8.54,8.54,0,0,1,15.42-7.33L1495,1062.5a8.52,8.52,0,0,1-4,11.38A8.65,8.65,0,0,1,1487.31,1074.69Z"/><path class="cls-28" d="M1493.06,1067a10,10,0,0,1-9-5.71L1446.8,983a10,10,0,0,1-.7-6.38c-.36.12-.71.22-1,.37a10,10,0,0,0-4.74,13.34l37.18,78.26a10.06,10.06,0,0,0,9,5.73,10.32,10.32,0,0,0,4.28-1,10,10,0,0,0,5.47-7A10.45,10.45,0,0,1,1493.06,1067Z"/><path class="cls-29" d="M1470.24,989.08c11.5,1.15,56.66,8.65,81.13,12.77,5.52-4.14-4.32-12.39-4.32-12.39l-90-40.22-8.5,9.53,3,15.37S1454.23,987.48,1470.24,989.08Z"/><path class="cls-30" d="M1470.24,989.08c-16-1.6-18.68-14.94-18.68-14.94l-3-15.37-78.27,87.58h49.43c0-26.68,37.34-36.29,37.34-36.29s67.22-4.61,86.42-6c4-.32,6.44-1.11,7.88-2.18C1526.9,997.73,1481.74,990.23,1470.24,989.08Z"/><polygon class="cls-31" points="1467.97 954.09 1394.22 1045.9 1371.27 1045.09 1455.5 948.72 1467.97 954.09"/><path class="cls-32" d="M1227.41,1048.29a25.78,25.78,0,0,1-22.4,28.77l-114.34,14.26a25.79,25.79,0,0,1-28.78-22.4h0a25.77,25.77,0,0,1,22.4-28.76l114.34-14.26a25.78,25.78,0,0,1,28.78,22.39Z"/><path class="cls-33" d="M1089.73,1081.73a16.27,16.27,0,0,1-16.11-14.27,16.28,16.28,0,0,1,14.13-18.16l109.78-13.67a15.42,15.42,0,0,1,2-.13,16.26,16.26,0,0,1,12.8,26.26,16.09,16.09,0,0,1-10.82,6.14l-109.78,13.69A17.48,17.48,0,0,1,1089.73,1081.73Z"/><polyline class="cls-34" points="1256.85 1013.63 1283.25 1054.43 1230.45 1054.43"/><path class="cls-35" d="M1209.2,964.9l-176.65,2c-8.35,30.12,6.86,59.93,6.86,59.93l149.16,3.83-4,14c12.27-22.64,29.63-54.9,34.22-64.82C1225.65,965.08,1209.2,964.9,1209.2,964.9Z"/><path class="cls-36" d="M1397,831.54l-.47-3.76-22.3,10.87,4.28,12.81s29.87,87.48,25.6,113.79-57.61,81.8-57.61,81.8l-135.13-1.11s52-65.9,18-105c-15.69-18-52.19-12-132.57-7.72-56.19,3-64.4,22.33-64.26,33.68l176.65-2s16.45.18,9.6,14.93c-4.59,9.92-22,42.18-34.22,64.82l-4.55,15.92,14.23,11.38s99.57,2.84,133.72,5.68,46.94-18.48,46.94-18.48l88.2-112.39C1458.85,910.49,1397,831.54,1397,831.54Z"/><polygon class="cls-26" points="1213.64 977.6 1212.32 977.63 1124.03 976.81 1210.7 984.53 1213.64 977.6"/><polygon class="cls-26" points="1208.18 989.42 1206.85 989.46 1134.82 989.42 1205.24 996.36 1208.18 989.42"/><polygon class="cls-26" points="1202.71 1001.62 1201.39 1001.64 1145.63 1002.41 1199.77 1008.55 1202.71 1001.62"/><path class="cls-5" d="M1333.33,1059.34c-.37,0-.75,0-1.13,0-28.1-.72-150.13.22-151.41.23l.1-3.32c1.29,0,123.24-.81,151.41-.11h1c26.45,0,46-25.77,70.81-70.13,12.12-21.72,3.5-66.45,3.05-68.71l-24-73.7a1.64,1.64,0,0,1,.69-1.87,1.3,1.3,0,0,1,.51-.18c1.68-.77,7.28-4.2,14.42-8.39l1.62,2.76c-11.75,6.91-11.08,6.76-13.75,8l23.55,72.44a.77.77,0,0,1,0,.17c.4,2,9.58,47.79-3.37,71C1381.57,1032.93,1361.32,1059.34,1333.33,1059.34Zm51.93-217.74a1.59,1.59,0,0,1,.56.35A1.31,1.31,0,0,0,1385.26,841.6Z"/><path class="cls-19" d="M1106.5,1064.49a17.61,17.61,0,1,1-17.61-17.62A17.6,17.6,0,0,1,1106.5,1064.49Z"/><path class="cls-37" d="M1473.61,962l69.23,29.36s10.46,11.66,1.61,7.65-66.81-29-74.06-29S1473.61,962,1473.61,962Z"/><path class="cls-37" d="M1403.18,846.42s55.15,81.7,52.32,95.4-17.71,22.12-17.71,22.12S1443,955.9,1403.18,846.42Z"/><rect class="cls-34" x="1389.1" y="795.11" width="33.39" height="2.41"/><polygon class="cls-34" points="1395.84 821.11 1377.22 829.41 1360.53 801.02 1358.44 802.25 1375.02 830.4 1355.08 839.27 1359.64 847.73 1396.74 829.61 1395.84 821.11"/><path class="cls-13" d="M1390.44,796.38a16.37,16.37,0,0,1-16.37,16.37h-31.66A16.37,16.37,0,0,1,1326,796.38h0A16.36,16.36,0,0,1,1342.41,780h31.66a16.36,16.36,0,0,1,16.37,16.36Z"/><path class="cls-26" d="M1351.85,801.29A11.33,11.33,0,1,1,1340.53,790,11.31,11.31,0,0,1,1351.85,801.29Z"/><path class="cls-26" d="M1363.94,802.76a2.42,2.42,0,0,1-2.41,2.41h0a2.41,2.41,0,0,1-2.42-2.41V795.3a2.41,2.41,0,0,1,2.42-2.41h0a2.42,2.42,0,0,1,2.41,2.41Z"/><path class="cls-15" d="M1307.09,889c0,18.59,3.23,33.67-19.48,33.67H1110.34c-22.72,0-41.14-15.08-41.14-33.67h0c0-18.59,18.42-33.66,41.14-33.66H1266c22.72,0,41.13,15.07,41.13,33.66Z"/><path class="cls-15" d="M1305.76,887.2H1068.09c-.07.76-.11,1.52-.11,2.28,0,18.61,18.42,33.68,41.13,33.68h177.26c22.72,0,19.5-15.07,19.5-33.68C1305.87,888.72,1305.83,888,1305.76,887.2Z"/><polyline class="cls-5" points="1236.39 1013.58 1230.12 1032.52 1255.62 1032.52 1262.03 1014.18"/><path class="cls-26" d="M1229.23,1028.2,1212,1057.05l95.34.52s-.44-12.08-15.21-13a62.94,62.94,0,0,1-25.79-7.46l-8.06-8.5Z"/><path class="cls-26" d="M1144.1,839.88s-6.7,67.71,40.23,64.36,101.24-10.07,101.24-10.07l-53.21,120.37,32.65,8.14,68.84-149.29s18.77-26.81-19.45-32.17-144.82,1.34-144.82,1.34Z"/><polyline class="cls-38" points="1288.95 676.88 1275.53 703.04 1241.75 683.81 1255.62 658.09"/><path class="cls-39" d="M1343.45,784.54c-7.71-2.68-24.15-.11-24.15-.11l-2.69,7.27-11.77-4.17s-17.31,7.6,4,13.86c14.45,4.23,21.56,1.37,24.66-.93a20.43,20.43,0,0,1,11.88,11.22s6.42-.11,9.1-9.84S1351.17,787.22,1343.45,784.54Z"/><path class="cls-40" d="M1227.08,689.49c-2.82,0-136.77,85.82-85.81,168l91.54-18.72,45.4-125.93S1257.48,689.49,1227.08,689.49Z"/><path class="cls-41" d="M1316.17,621.84l-3.55,39.29s-1.45,32.13-11.47,29.22c-9.18-2.68-30.43-5.73-30.85-33.81l1.44-42S1315.28,602.66,1316.17,621.84Z"/><path class="cls-13" d="M1212.67,718.63s-9.41,94.2-4.82,96.69,101.92-6.05,101.92-6.05l12.06-25.47-71.07-5.36,4-58.34S1240.84,689.13,1212.67,718.63Z"/><path class="cls-5" d="M1313.43,811.44a5.66,5.66,0,0,1-7.34,3.17h0a5.63,5.63,0,0,1-3.17-7.32l10.69-27a5.65,5.65,0,0,1,7.33-3.17h0a5.63,5.63,0,0,1,3.17,7.33Z"/><path class="cls-5" d="M1282.79,709.53a11.41,11.41,0,0,1-15.46,4.63l-36.63-19.74a11.41,11.41,0,0,1-4.63-15.45h0a11.41,11.41,0,0,1,15.46-4.63l36.62,19.74a11.41,11.41,0,0,1,4.64,15.45Z"/><path class="cls-26" d="M1254.72,672.85s22.82.89,24.84-6.71,0-36.68,0-36.68l-22.38-.9"/><path class="cls-13" d="M1320.64,622.6,1269.93,636l.37,28.87s-10.45,13.77-25.64,5.28-40.3-67.27,8.87-86.94,64.59,27.58,64.59,27.58S1322,610.53,1320.64,622.6Z"/><path class="cls-42" d="M1265.52,589.67c13.6-5.45,24.51-5.53,33.15-2.91-9.68-6.55-23.73-9.9-43.44-2-47.12,18.84-23.06,75.16-8.5,83.3a20.46,20.46,0,0,0,7.06,2.46C1239.39,657,1221.77,607.16,1265.52,589.67Z"/><path class="cls-26" d="M1296.57,608.91c-6.77,0-11.44-2.32-12.23-6.06-.57-2.64.91-5.43,4.15-7.85a29.12,29.12,0,0,1,11.21-4.75l.64-.12,1.17-.21.66.64a69.72,69.72,0,0,1,9.93,12.32l1.06,1.67-1.77.89a33.14,33.14,0,0,1-7.9,2.72,34.13,34.13,0,0,1-6.92.75Z"/><path class="cls-5" d="M1286.82,600.64c.83,4,8.46,5.73,17,3.92a31.5,31.5,0,0,0,7.56-2.67,67.87,67.87,0,0,0-9.75-11.89l-.84.15C1292.24,592,1286,596.66,1286.82,600.64Z"/><polyline class="cls-43" points="1320.64 622.52 1326.08 653.39 1269.93 655.85 1269.82 635.73"/><path class="cls-5" d="M1234.6,829.88l2.08,9.69-94.09,22.22s-21.47-13.87-8.2-18.51C1159.4,834.58,1234.6,829.88,1234.6,829.88Z"/><rect class="cls-44" x="457.69" width="594.79" height="1141.03" rx="53.95"/><g class="cls-45"><rect class="cls-46" x="475.58" y="22.65" width="558.27" height="1097.74"/><polyline class="cls-47" points="1029.06 863.38 903.98 863.65 855.2 905.35 916.24 962.57 879.45 1018.17 846.47 1021.98 910.79 1087.39 1063.67 1082.48"/><line class="cls-48" x1="1034.78" y1="37.11" x2="470.67" y2="601.22"/><polyline class="cls-48" points="732.29 48.55 732.29 220.24 890.08 378.03 890.08 522.73 1051.13 522.73"/><polyline class="cls-48" points="652.17 48.55 652.17 337.97 463.31 526.82"/><line class="cls-48" x1="578.59" y1="38.74" x2="578.59" y2="298.72"/><line class="cls-48" x1="652.17" y1="311.8" x2="475.58" y2="311.8"/><polyline class="cls-48" points="1033.15 570.15 815.68 570.15 724.11 478.58 482.12 720.58"/><polyline class="cls-48" points="487.02 414.81 828.76 756.55 1067.48 756.55"/><path class="cls-49" d="M1070.76,820.32H822.22L696.32,696.05s-40.88-58.86-93.2,6.54L781.34,880.82,706.13,956H469"/><polyline class="cls-49" points="473.94 859.56 585.13 748.38 912.15 1088.48 1035.69 1088.48"/><line class="cls-49" x1="874.5" y1="1134.22" x2="537.71" y2="797.43"/><line class="cls-49" x1="752.35" y1="1129.79" x2="484.57" y2="862.02"/><polyline class="cls-49" points="487.02 1018.17 879.45 1018.17 913.78 962.57 857.38 906.16 903.16 860.38 1093.65 860.38"/><polyline class="cls-49" points="1039.69 686.24 845.11 671.53 830.39 673.16 688.14 529.27"/><polyline class="cls-49" points="526.27 35.47 529.54 230.05 732.29 231.69"/><polyline class="cls-49" points="1023.34 113.96 769.08 368.21 617.01 520.28 494.38 642.91"/><polyline class="cls-49" points="794.42 32.2 792.79 194.08 943.22 344.51 943.22 465.5 977.55 465.5 977.55 254.58 1121.44 254.58"/><polygon class="cls-47" points="811.87 355.41 738.83 437.16 821.67 526.55 853.29 522.19 857.65 397.92 811.87 355.41"/><path class="cls-50" d="M521.36,512.1a62.95,62.95,0,1,0,62.95-63A63,63,0,0,0,521.36,512.1Z"/><polyline class="cls-51" points="472.31 645.91 1033.15 85.07 1052.77 21.3 429.8 650.82"/></g><path class="cls-52" d="M834.81,633.73c0,36.76,66.54,123.56,66.54,123.87,0,.59,66.52-87.11,66.52-123.87a66.53,66.53,0,1,0-133.06,0Z"/><path class="cls-5" d="M878.76,632.26a22.58,22.58,0,1,0,22.59-22.57A22.58,22.58,0,0,0,878.76,632.26Z"/><path class="cls-44" d="M860.94,84.9a18.74,18.74,0,0,1-18.74,18.74H668A18.74,18.74,0,0,1,649.23,84.9V46.54c0-10.34-29.08-18.73-18.74-18.73H879.67c10.35,0-18.73,8.39-18.73,18.73Z"/><path class="cls-53" d="M1384.27,245.14A91.16,91.16,0,1,1,1293.11,154,91.16,91.16,0,0,1,1384.27,245.14Z"/><path class="cls-54" d="M1352.83,245.14a59.72,59.72,0,1,1-59.72-59.72A59.72,59.72,0,0,1,1352.83,245.14Z"/><path class="cls-55" d="M190.25,498.69c8.53,81.85-139.64,108.79-9.5,185.17,0,0,84-33,81.75-76.25s17-71.47,21.56-92.36S190.25,498.69,190.25,498.69Z"/><polygon class="cls-56" points="232.63 515.06 218.09 571.03 203.75 573.19 207.11 622.31 273.35 628.1 267.25 577.36 250.88 574.99 258.39 525.02 232.63 515.06"/><path class="cls-57" d="M240.14,523a13.44,13.44,0,1,1-11.89-14.83A13.47,13.47,0,0,1,240.14,523Z"/><path class="cls-55" d="M278.63,472.39s26.87,46.22-9.63,85.72l.2-71.57Z"/><path class="cls-58" d="M277.72,485.3l1.59,49s-4.76,34.39-29.1,24.29-18.5-54-18.5-54Z"/><path class="cls-55" d="M284.13,485.93s-38.74,37.64-58.71,33.95-35.64-19.74-35.64-19.74,22.45-86.62,89.84-26.85Z"/><path class="cls-5" d="M270.79,540.43l-17.85-.54s5.78,9.59,11.17,7.82"/><polyline class="cls-59" points="416.11 578.62 414.8 567.99 414.8 554.75 411.33 557.57 409.81 562.78 405.25 589.25"/><polyline class="cls-60" points="394.49 600.91 438.24 543.03 443.3 562.08 435.15 580.59 407.81 612.66"/><path class="cls-61" d="M252.25,1052.36l3,39.67s51.84,31.5,48.39,38.28c-1.11,2.19-41.72-3.28-41.72-3.28l-32.67-27.5-3.33-39.84"/><path class="cls-62" d="M238.09,1088.69l-4.84-1.5s-9.66-.41-10.33,4.17,2,17.33,2,17.33l5,28.36,3.88.33-1.51-25.19h9L260,1135.51h56.29s-16.19-16.19-18.5-17-10.8-.77-10.8-.77-10.8,10-20.82,4.63S238.09,1088.69,238.09,1088.69Z"/><path class="cls-63" d="M169,1036.85l-19.68,34.57s25.38,55.09,18.73,58.8c-2.15,1.19-32.76-26-32.76-26l-11.72-41.06,19.49-34.89"/><path class="cls-62" d="M137,1059.06l-3.17-3.94s-7.79-5.75-10.9-2.32-8,15.49-8,15.49l-11.73,26.29,3,2.45L119,1075.29l7.47,5,2.48,29.79,46.68,31.46s-4.38-22.48-5.86-24.41-8.52-6.68-8.52-6.68-14.56,2.29-19.86-7.79S137,1059.06,137,1059.06Z"/><path class="cls-64" d="M269.75,763.53l-34.5,146.83-77,148.67-22-19s20.5-103.67,57-134l-7-143"/><path class="cls-65" d="M273.92,579.19l71.77,66.47,50.1-55L412.9,605s-52.85,81.27-63.24,81.27S258,623.85,258,623.85"/><path class="cls-66" d="M179.25,577.69c5.32-9.51,26.27-5.47,30.34-6.66,8.91-2.62,28.35,32.29,41.16,33.83.35,0,6.2-25.66,5.38-29.5-.38-1.75,14,1.67,17.46,3.17s-1.27,21.58,7.66,40.83c10.77,25.67-5.85,30.93-10.5,41-7.33,15.89-1,105.5-1,105.5l-128,3s20.7-39.42,28.5-82.5C178.36,641.6,169.84,594.52,179.25,577.69Z"/><polyline class="cls-67" points="190.73 706.33 233.39 716.46 250.45 734.06 229.12 735.13 185.93 724.46"/><path class="cls-68" d="M179.84,576.58S85.45,706.56,98.25,713s93.58,10,93.58,10l4.8-20.8-46.39-17.59s48-52.4,51.59-72S201.83,573,179.84,576.58Z"/><path class="cls-69" d="M141.2,767.73s-4,44,19.72,68.46c35,36,61.67,74.51,61.67,74.51s-19.6,38.47-12,72.66S226,1076.71,226,1076.71l30.39-2.53,3.8-155.76L223.75,767.36"/><rect class="cls-70" x="1002.85" y="938.56" width="175.49" height="203.79"/><rect class="cls-71" x="946.24" y="938.56" width="56.61" height="203.79"/><rect class="cls-5" x="1064.88" y="937.86" width="38.68" height="90.57"/><rect class="cls-5" x="1015.59" y="948.94" width="32.08" height="27.36"/><rect class="cls-70" x="1161.03" y="1023.25" width="101.71" height="118.11"/><rect class="cls-71" x="1128.22" y="1023.25" width="32.81" height="118.11"/><rect class="cls-5" x="1196.98" y="1022.84" width="22.42" height="52.49"/><rect class="cls-5" x="1168.41" y="1029.26" width="18.59" height="15.86"/><rect class="cls-70" x="424.25" y="578.36" width="124" height="144"/><rect class="cls-71" x="384.25" y="578.36" width="40" height="144"/><rect class="cls-5" x="468.08" y="577.86" width="27.33" height="64"/><rect class="cls-71" x="433.25" y="585.69" width="22.67" height="19.33"/><polyline class="cls-64" points="565.58 752.36 568.58 849.36 577.91 918.36 663.25 1052.36 699.25 1029.86 630.58 909.36 671.25 751.69"/><polyline class="cls-72" points="508.08 692.03 467.41 698.03 440.08 696.69 433.41 672.69 464.75 667.36 469.41 659.36 487.41 663.36 497.41 674.03 525.25 674.03"/><path class="cls-73" d="M642.75,474.36s4,24.5.5,32-15.5,28.5-15.5,28.5h-28.5l-2.5-66"/><polyline class="cls-74" points="585.41 539.95 597.07 566.94 632.05 549.98 616 504.36"/><path class="cls-75" d="M562.58,486.76l.25,35.9s-1.23,29.31,9,27.09c9.34-2,30.7-3.91,33.46-29.43l2-38.27S565.05,469.34,562.58,486.76Z"/><path class="cls-76" d="M628.85,565.63s28.4,5.73,31.4,15.73,22,169,22,169l-123,2,19-167"/><path class="cls-77" d="M632.88,581.84s4.29,104.7-.3,107.19-132.33,8.33-132.33,8.33l2.87-31.88,91.46-7.79-3.82-74.38S604.71,552.34,632.88,581.84Z"/><path class="cls-5" d="M586.42,569.38c1,6.23-1.9,12.21,4.33,11.23l57.37-8.25c6.22-1,2.92-6.74,1.94-13h0a11.4,11.4,0,0,0-13-9.5l-41.1,6.46a11.39,11.39,0,0,0-9.5,13Z"/><path class="cls-44" d="M536.84,467.44s-13.26.92-8.37,16.75c.75,2.44,35.94,0,35.94,0"/><path class="cls-78" d="M644.75,485.36l-54-1h-31.5s2-41.5,29.5-45S644.75,439.86,644.75,485.36Z"/><path class="cls-79" d="M597.75,484.69s-45.78,2.17-50.14,0-6.38-17.66-13.55-17c0,0,41.25-.88,46,0C590.75,469.69,597.75,484.69,597.75,484.69Z"/><path class="cls-80" d="M623.58,504.69c0,7.55-5.52,13.67-12.33,13.67s-12.34-6.12-12.34-13.67S604.43,491,611.25,491,623.58,497.14,623.58,504.69Z"/><path class="cls-69" d="M678.25,751.69s-6,50-36,75.67c-13.53,11.57-83,69-83,69L556.58,1071l-41.33,1.33-6-182,74-138"/><polyline class="cls-5" points="557.25 748.36 685.25 745.03 685.25 769.03 560.58 769.69"/><path class="cls-18" d="M557,1069l3.92,59.86-104,2.14-.71-6.28s.57-15.86,20-17,33.52-14.43,33.52-14.43l9.26-23.68Z"/><path class="cls-18" d="M696.71,1029l31.6,51-90.88,50.81-3.58-5.21s-7-14.27,9.63-24.43,22.81-28.5,22.81-28.5l-2.94-25.27Z"/><polyline class="cls-5" points="496.58 663.36 507.25 662.61 503.62 699.36 491.75 699.94"/><path class="cls-5" d="M565.75,523.36l18.5,1s-5.34,10.33-14.67,10.33"/><polyline class="cls-81" points="179.24 399.9 179.24 439.51 144.91 405.18"/><path class="cls-82" d="M244,363.36a52,52,0,0,1-52,52H52a52,52,0,0,1-52-52H0a52,52,0,0,1,52-52H192a52,52,0,0,1,52,52Z"/><circle class="cls-5" cx="72" cy="363.36" r="14.5"/><circle class="cls-5" cx="122" cy="363.36" r="14.5"/><circle class="cls-5" cx="172" cy="363.36" r="14.5"/><polyline class="cls-83" points="674.76 399.9 674.76 439.51 709.09 405.18"/><path class="cls-84" d="M610,363.36a52,52,0,0,0,52,52H802a52,52,0,0,0,52-52h0a52,52,0,0,0-52-52H662a52,52,0,0,0-52,52Z"/><path class="cls-5" d="M767.5,363.36a14.5,14.5,0,1,0,14.5-14.5A14.5,14.5,0,0,0,767.5,363.36Z"/><circle class="cls-5" cx="732" cy="363.36" r="14.5"/><circle class="cls-5" cx="682" cy="363.36" r="14.5"/></g></g></svg>